<mxfile host="app.diagrams.net" modified="2020-10-09T22:59:50.802Z" agent="5.0 (Macintosh; Intel Mac OS X 10_15_7) AppleWebKit/605.1.15 (KHTML, like Gecko) Version/14.0 Safari/605.1.15" etag="BCkMgWgFemhz6-xqqQM_" version="13.7.9" type="github">
  <diagram id="n9CGKcocQzly--LrB1us" name="Page-1">
    <mxGraphModel dx="1298" dy="779" grid="1" gridSize="10" guides="1" tooltips="1" connect="1" arrows="1" fold="1" page="1" pageScale="1" pageWidth="850" pageHeight="1100" math="0" shadow="0">
      <root>
        <mxCell id="0" />
        <mxCell id="1" parent="0" />
        <mxCell id="3DNckva2lBYBBFh90QSR-12" style="edgeStyle=orthogonalEdgeStyle;curved=1;rounded=0;orthogonalLoop=1;jettySize=auto;html=1;entryX=1;entryY=0.5;entryDx=0;entryDy=0;exitX=0.5;exitY=1;exitDx=0;exitDy=0;" edge="1" parent="1" source="3DNckva2lBYBBFh90QSR-18" target="3DNckva2lBYBBFh90QSR-4">
          <mxGeometry relative="1" as="geometry" />
        </mxCell>
        <mxCell id="3DNckva2lBYBBFh90QSR-13" value="&lt;font style=&quot;font-size: 12px&quot;&gt;4-1. log&lt;/font&gt;" style="edgeLabel;html=1;align=center;verticalAlign=middle;resizable=0;points=[];" vertex="1" connectable="0" parent="3DNckva2lBYBBFh90QSR-12">
          <mxGeometry x="-0.2231" y="-37" relative="1" as="geometry">
            <mxPoint as="offset" />
          </mxGeometry>
        </mxCell>
        <mxCell id="3DNckva2lBYBBFh90QSR-14" style="edgeStyle=orthogonalEdgeStyle;curved=1;rounded=0;orthogonalLoop=1;jettySize=auto;html=1;entryX=0;entryY=0.4;entryDx=0;entryDy=0;entryPerimeter=0;exitX=0.5;exitY=1;exitDx=0;exitDy=0;" edge="1" parent="1" source="3DNckva2lBYBBFh90QSR-19" target="3DNckva2lBYBBFh90QSR-5">
          <mxGeometry relative="1" as="geometry" />
        </mxCell>
        <mxCell id="3DNckva2lBYBBFh90QSR-15" value="&lt;font style=&quot;font-size: 12px&quot;&gt;4-1. log&lt;/font&gt;" style="edgeLabel;html=1;align=center;verticalAlign=middle;resizable=0;points=[];" vertex="1" connectable="0" parent="3DNckva2lBYBBFh90QSR-14">
          <mxGeometry x="-0.1709" y="29" relative="1" as="geometry">
            <mxPoint x="1" y="3" as="offset" />
          </mxGeometry>
        </mxCell>
        <mxCell id="3DNckva2lBYBBFh90QSR-28" style="edgeStyle=orthogonalEdgeStyle;curved=1;rounded=0;orthogonalLoop=1;jettySize=auto;html=1;entryX=0.5;entryY=0;entryDx=0;entryDy=0;fontSize=12;exitX=0.5;exitY=0;exitDx=0;exitDy=0;" edge="1" parent="1" source="3DNckva2lBYBBFh90QSR-2" target="3DNckva2lBYBBFh90QSR-4">
          <mxGeometry relative="1" as="geometry" />
        </mxCell>
        <mxCell id="3DNckva2lBYBBFh90QSR-29" value="5. over" style="edgeLabel;html=1;align=center;verticalAlign=middle;resizable=0;points=[];fontSize=12;" vertex="1" connectable="0" parent="3DNckva2lBYBBFh90QSR-28">
          <mxGeometry x="-0.3011" y="2" relative="1" as="geometry">
            <mxPoint as="offset" />
          </mxGeometry>
        </mxCell>
        <mxCell id="3DNckva2lBYBBFh90QSR-2" value="Leader&lt;br&gt;&lt;br&gt;3. zxid&lt;br&gt;4-2. log-ok" style="rounded=0;whiteSpace=wrap;html=1;" vertex="1" parent="1">
          <mxGeometry x="390" y="150" width="210" height="100" as="geometry" />
        </mxCell>
        <mxCell id="3DNckva2lBYBBFh90QSR-10" style="edgeStyle=orthogonalEdgeStyle;curved=1;rounded=0;orthogonalLoop=1;jettySize=auto;html=1;exitX=0.5;exitY=0;exitDx=0;exitDy=0;entryX=0;entryY=0.5;entryDx=0;entryDy=0;" edge="1" parent="1" source="3DNckva2lBYBBFh90QSR-4" target="3DNckva2lBYBBFh90QSR-2">
          <mxGeometry relative="1" as="geometry" />
        </mxCell>
        <mxCell id="3DNckva2lBYBBFh90QSR-11" value="&lt;font style=&quot;font-size: 12px&quot;&gt;2. create /foo&lt;/font&gt;" style="edgeLabel;html=1;align=center;verticalAlign=middle;resizable=0;points=[];" vertex="1" connectable="0" parent="3DNckva2lBYBBFh90QSR-10">
          <mxGeometry x="-0.2538" y="-29" relative="1" as="geometry">
            <mxPoint as="offset" />
          </mxGeometry>
        </mxCell>
        <mxCell id="3DNckva2lBYBBFh90QSR-20" style="edgeStyle=orthogonalEdgeStyle;curved=1;rounded=0;orthogonalLoop=1;jettySize=auto;html=1;exitX=1;exitY=0.5;exitDx=0;exitDy=0;entryX=0;entryY=0.5;entryDx=0;entryDy=0;" edge="1" parent="1" source="3DNckva2lBYBBFh90QSR-4" target="3DNckva2lBYBBFh90QSR-18">
          <mxGeometry relative="1" as="geometry" />
        </mxCell>
        <mxCell id="3DNckva2lBYBBFh90QSR-21" value="&lt;font style=&quot;font-size: 12px&quot;&gt;4-2. log ok&lt;/font&gt;" style="edgeLabel;html=1;align=center;verticalAlign=middle;resizable=0;points=[];" vertex="1" connectable="0" parent="3DNckva2lBYBBFh90QSR-20">
          <mxGeometry x="0.2757" relative="1" as="geometry">
            <mxPoint as="offset" />
          </mxGeometry>
        </mxCell>
        <mxCell id="3DNckva2lBYBBFh90QSR-25" value="4-4. write ok" style="edgeLabel;html=1;align=center;verticalAlign=middle;resizable=0;points=[];fontSize=12;" vertex="1" connectable="0" parent="3DNckva2lBYBBFh90QSR-20">
          <mxGeometry x="0.0162" y="1" relative="1" as="geometry">
            <mxPoint as="offset" />
          </mxGeometry>
        </mxCell>
        <mxCell id="3DNckva2lBYBBFh90QSR-30" style="edgeStyle=orthogonalEdgeStyle;curved=1;rounded=0;orthogonalLoop=1;jettySize=auto;html=1;entryX=0.5;entryY=0;entryDx=0;entryDy=0;fontSize=12;exitX=0;exitY=0.5;exitDx=0;exitDy=0;" edge="1" parent="1" source="3DNckva2lBYBBFh90QSR-4" target="3DNckva2lBYBBFh90QSR-7">
          <mxGeometry relative="1" as="geometry">
            <Array as="points">
              <mxPoint x="180" y="380" />
              <mxPoint x="180" y="490" />
            </Array>
          </mxGeometry>
        </mxCell>
        <mxCell id="3DNckva2lBYBBFh90QSR-31" value="6. over" style="edgeLabel;html=1;align=center;verticalAlign=middle;resizable=0;points=[];fontSize=12;" vertex="1" connectable="0" parent="3DNckva2lBYBBFh90QSR-30">
          <mxGeometry x="-0.2286" y="-2" relative="1" as="geometry">
            <mxPoint as="offset" />
          </mxGeometry>
        </mxCell>
        <mxCell id="3DNckva2lBYBBFh90QSR-4" value="Follower" style="rounded=0;whiteSpace=wrap;html=1;" vertex="1" parent="1">
          <mxGeometry x="200" y="350" width="120" height="60" as="geometry" />
        </mxCell>
        <mxCell id="3DNckva2lBYBBFh90QSR-5" value="Follower" style="rounded=0;whiteSpace=wrap;html=1;" vertex="1" parent="1">
          <mxGeometry x="660" y="350" width="120" height="60" as="geometry" />
        </mxCell>
        <mxCell id="3DNckva2lBYBBFh90QSR-8" style="edgeStyle=orthogonalEdgeStyle;curved=1;rounded=0;orthogonalLoop=1;jettySize=auto;html=1;exitX=0.5;exitY=0;exitDx=0;exitDy=0;entryX=0.5;entryY=1;entryDx=0;entryDy=0;" edge="1" parent="1" source="3DNckva2lBYBBFh90QSR-7" target="3DNckva2lBYBBFh90QSR-4">
          <mxGeometry relative="1" as="geometry" />
        </mxCell>
        <mxCell id="3DNckva2lBYBBFh90QSR-9" value="&lt;font style=&quot;font-size: 12px&quot;&gt;1. create /foo&lt;/font&gt;" style="edgeLabel;html=1;align=center;verticalAlign=middle;resizable=0;points=[];" vertex="1" connectable="0" parent="3DNckva2lBYBBFh90QSR-8">
          <mxGeometry x="0.05" y="-2" relative="1" as="geometry">
            <mxPoint as="offset" />
          </mxGeometry>
        </mxCell>
        <mxCell id="3DNckva2lBYBBFh90QSR-7" value="Client" style="ellipse;whiteSpace=wrap;html=1;aspect=fixed;" vertex="1" parent="1">
          <mxGeometry x="220" y="490" width="80" height="80" as="geometry" />
        </mxCell>
        <mxCell id="3DNckva2lBYBBFh90QSR-22" style="edgeStyle=orthogonalEdgeStyle;curved=1;rounded=0;orthogonalLoop=1;jettySize=auto;html=1;" edge="1" parent="1" source="3DNckva2lBYBBFh90QSR-18">
          <mxGeometry relative="1" as="geometry">
            <mxPoint x="320" y="380" as="targetPoint" />
            <Array as="points">
              <mxPoint x="440" y="255" />
              <mxPoint x="440" y="380" />
            </Array>
          </mxGeometry>
        </mxCell>
        <mxCell id="3DNckva2lBYBBFh90QSR-23" value="&lt;font style=&quot;font-size: 12px&quot;&gt;4-3. write&lt;/font&gt;" style="edgeLabel;html=1;align=center;verticalAlign=middle;resizable=0;points=[];" vertex="1" connectable="0" parent="3DNckva2lBYBBFh90QSR-22">
          <mxGeometry x="-0.1547" y="-9" relative="1" as="geometry">
            <mxPoint as="offset" />
          </mxGeometry>
        </mxCell>
        <mxCell id="3DNckva2lBYBBFh90QSR-18" value="队列" style="rhombus;whiteSpace=wrap;html=1;" vertex="1" parent="1">
          <mxGeometry x="380" y="230" width="40" height="50" as="geometry" />
        </mxCell>
        <mxCell id="3DNckva2lBYBBFh90QSR-26" style="edgeStyle=orthogonalEdgeStyle;curved=1;rounded=0;orthogonalLoop=1;jettySize=auto;html=1;exitX=0;exitY=0.5;exitDx=0;exitDy=0;entryX=-0.008;entryY=0.4;entryDx=0;entryDy=0;entryPerimeter=0;fontSize=12;" edge="1" parent="1" source="3DNckva2lBYBBFh90QSR-19" target="3DNckva2lBYBBFh90QSR-5">
          <mxGeometry relative="1" as="geometry" />
        </mxCell>
        <mxCell id="3DNckva2lBYBBFh90QSR-27" value="&lt;font style=&quot;font-size: 12px&quot;&gt;4-3. write&lt;/font&gt;" style="edgeLabel;html=1;align=center;verticalAlign=middle;resizable=0;points=[];fontSize=12;" vertex="1" connectable="0" parent="3DNckva2lBYBBFh90QSR-26">
          <mxGeometry x="-0.2098" y="3" relative="1" as="geometry">
            <mxPoint as="offset" />
          </mxGeometry>
        </mxCell>
        <mxCell id="3DNckva2lBYBBFh90QSR-19" value="队列" style="rhombus;whiteSpace=wrap;html=1;" vertex="1" parent="1">
          <mxGeometry x="570" y="230" width="40" height="50" as="geometry" />
        </mxCell>
        <mxCell id="3DNckva2lBYBBFh90QSR-32" value="&lt;font style=&quot;font-size: 24px&quot;&gt;Zookeeper ZAB&amp;nbsp;&lt;/font&gt;" style="text;html=1;strokeColor=none;fillColor=none;align=center;verticalAlign=middle;whiteSpace=wrap;rounded=0;fontSize=12;" vertex="1" parent="1">
          <mxGeometry x="50" y="40" width="190" height="50" as="geometry" />
        </mxCell>
      </root>
    </mxGraphModel>
  </diagram>
</mxfile>
